HIERARCHY
ROOT Hips
{
	OFFSET 0.000000 0.000000 0.000000
	CHANNELS 6 Xposition Yposition Zposition Xrotation Yrotation Zrotation
	JOINT Chest
	{
		OFFSET 0.000000 0.009282 11.569106
		CHANNELS 3 Xrotation Yrotation Zrotation
		JOINT Chest2
		{
			OFFSET 0.000000 -0.016863 9.269641
			CHANNELS 3 Xrotation Yrotation Zrotation
			JOINT Chest3
			{
				OFFSET 0.000000 0.000000 8.374491
				CHANNELS 3 Xrotation Yrotation Zrotation
				JOINT Chest4
				{
					OFFSET 0.000000 0.000000 8.374493
					CHANNELS 3 Xrotation Yrotation Zrotation
					JOINT Neck
					{
						OFFSET 0.000000 -0.000001 12.152554
						CHANNELS 3 Xrotation Yrotation Zrotation
						JOINT Head
						{
							OFFSET 0.000000 -0.040100 7.802319
							CHANNELS 3 Xrotation Yrotation Zrotation
							End Site
							{
								OFFSET 0.000000 -0.020946 14.853096
							}
						}
					}
					JOINT RightCollar
					{
						OFFSET -2.894404 0.000000 6.791374
						CHANNELS 3 Xrotation Yrotation Zrotation
						JOINT RightShoulder
						{
							OFFSET -13.574684 0.000000 0.000000
							CHANNELS 3 Xrotation Yrotation Zrotation
							JOINT RightElbow
							{
								OFFSET -23.923903 0.000000 0.000000
								CHANNELS 3 Xrotation Yrotation Zrotation
								JOINT RightWrist
								{
									OFFSET -19.846718 -0.012765 0.000000
									CHANNELS 3 Xrotation Yrotation Zrotation
									End Site
									{
										OFFSET -14.973145 0.000000 0.000000
									}
								}
							}
						}
					}
					JOINT LeftCollar
					{
						OFFSET 2.894404 0.000000 6.791374
						CHANNELS 3 Xrotation Yrotation Zrotation
						JOINT LeftShoulder
						{
							OFFSET 13.574684 0.000000 0.000000
							CHANNELS 3 Xrotation Yrotation Zrotation
							JOINT LeftElbow
							{
								OFFSET 23.923903 0.000000 0.000000
								CHANNELS 3 Xrotation Yrotation Zrotation
								JOINT LeftWrist
								{
									OFFSET 19.846718 -0.012765 0.000000
									CHANNELS 3 Xrotation Yrotation Zrotation
									End Site
									{
										OFFSET 14.973145 0.000000 0.000000
									}
								}
							}
						}
					}
				}
			}
		}
	}
	JOINT RightHip
	{
		OFFSET -9.469263 -0.004642 0.045487
		CHANNELS 3 Xrotation Yrotation Zrotation
		JOINT RightKnee
		{
			OFFSET 0.000000 -0.002666 -40.478676
			CHANNELS 3 Xrotation Yrotation Zrotation
			JOINT RightAnkle
			{
				OFFSET 0.000000 -0.049110 -35.224068
				CHANNELS 3 Xrotation Yrotation Zrotation
				JOINT RightToe
				{
					OFFSET 0.000000 -12.539530 -6.151390
					CHANNELS 3 Xrotation Yrotation Zrotation
					End Site
					{
						OFFSET 0.000000 -5.044995 -1.291870
					}
				}
			}
		}
	}
	JOINT LeftHip
	{
		OFFSET 9.469263 -0.004642 0.045487
		CHANNELS 3 Xrotation Yrotation Zrotation
		JOINT LeftKnee
		{
			OFFSET 0.000000 -0.002666 -40.478676
			CHANNELS 3 Xrotation Yrotation Zrotation
			JOINT LeftAnkle
			{
				OFFSET 0.000000 -0.049110 -35.224068
				CHANNELS 3 Xrotation Yrotation Zrotation
				JOINT LeftToe
				{
					OFFSET 0.000000 -12.539530 -6.151390
					CHANNELS 3 Xrotation Yrotation Zrotation
					End Site
					{
						OFFSET 0.000000 -5.044995 -1.291870
					}
				}
			}
		}
	}
}
MOTION
Frames: 11
Frame Time: 0.016667
-11.763571 -5.228525 83.051376 0.181732 7.232714 -104.710809 3.450035 -3.794510 2.784269 1.507444 -1.701376 1.207308 1.507444 -1.701376 1.207310 1.127143 -1.279026 0.901226 23.071976 6.266473 17.217251 6.769150 7.074709 33.164783 -24.058727 -3.998984 -5.922545 -43.280453 -30.853430 39.757544 12.561781 -16.375641 122.855227 8.917597 3.981910 -4.513249 -1.806741 11.795959 -2.729766 -3.039685 69.533006 3.535182 7.573721 2.793709 -1.635440 9.161587 13.719595 2.066875 10.449461 2.695866 -3.347265 3.154321 -1.420517 -0.962546 -6.649249 0.554277 -3.841931 -0.095214 -0.212041 -0.008767 10.010351 3.181206 -1.558758 2.129943 -0.503954 2.551564 -4.548678 -0.323115 -0.204635 -0.009671 -0.119531 0.007150 
-11.742264 -5.264795 83.058754 0.192286 7.253245 -104.739353 3.596629 -3.861307 2.821559 1.571507 -1.730948 1.220274 1.571508 -1.730947 1.220276 1.175089 -1.301362 0.910690 22.926290 6.408397 17.220748 6.467156 7.294140 33.222207 -24.015000 -4.452543 -5.795357 -43.457085 -31.013085 38.674450 13.335970 -15.503974 123.772071 8.512094 6.970772 -3.395003 -2.069104 11.752979 -2.655896 -2.891459 69.784446 3.149597 6.833264 2.481173 -1.311325 9.412207 13.880063 2.286999 10.418577 2.719555 -3.271768 3.202670 -1.432421 -0.935952 -6.613098 0.586011 -3.929691 -0.092790 -0.197930 -0.010711 10.024056 3.196440 -1.481964 2.103446 -0.493928 2.605893 -4.516622 -0.312418 -0.290329 -0.005390 -0.121030 0.008015 
-11.720502 -5.291922 83.068398 0.190270 7.284177 -104.749878 3.675239 -3.926012 2.850910 1.605234 -1.757269 1.231491 1.605234 -1.757269 1.231490 1.200295 -1.321205 0.918935 22.844058 6.519553 17.221958 6.288577 7.473952 33.262533 -23.986473 -5.022466 -5.411104 -43.570798 -30.963635 37.548104 14.007778 -14.571869 124.425146 8.101774 10.016886 -1.927629 -2.118375 11.718004 -2.611073 -2.892286 70.039314 2.816485 5.951982 2.087304 -0.939123 9.815628 14.029480 2.520268 10.407998 2.746544 -3.250896 3.230176 -1.426131 -0.890201 -6.570127 0.606093 -3.962191 -0.089296 -0.185716 -0.009824 10.046017 3.215565 -1.406981 2.073219 -0.483835 2.652631 -4.475651 -0.287069 -0.379283 -0.007280 -0.128012 0.009090 
-11.698544 -5.314148 83.079185 0.175686 7.307667 -104.736122 3.747217 -3.992474 2.852766 1.636574 -1.784440 1.231204 1.636574 -1.784444 1.231206 1.223741 -1.341647 0.918558 22.782552 6.638144 17.205882 6.144251 7.676138 33.272440 -24.067912 -5.353811 -5.274197 -43.434894 -31.274842 36.552826 14.263473 -13.487798 124.839848 7.099781 12.677142 -0.141382 -2.206520 11.714235 -2.491433 -2.930342 70.243025 2.479901 5.020777 1.663806 -0.500612 10.281748 14.079274 2.737910 10.403420 2.767797 -3.277793 3.234914 -1.412989 -0.828353 -6.520104 0.629079 -3.995898 -0.086115 -0.174615 -0.010195 10.053995 3.234964 -1.352640 2.048653 -0.470582 2.665966 -4.435994 -0.254640 -0.439724 -0.009408 -0.139156 0.009934 
-11.674168 -5.331511 83.089386 0.164316 7.319190 -104.714013 3.822038 -4.047994 2.898461 1.669248 -1.808843 1.249577 1.669248 -1.808846 1.249578 1.248138 -1.360064 0.932170 22.723688 6.733495 17.142108 6.006029 7.848326 33.188924 -23.969758 -5.502176 -5.351781 -43.375147 -31.745497 35.541876 14.580803 -12.580597 125.345296 6.194711 15.060675 1.603719 -2.427279 11.710620 -2.421290 -2.991355 70.356344 2.218317 4.198766 1.230898 0.030905 10.642644 14.032975 2.862951 10.385759 2.787775 -3.296153 3.244726 -1.411499 -0.774200 -6.472143 0.652028 -4.025173 -0.084543 -0.161405 -0.010597 10.046125 3.238028 -1.292554 2.032597 -0.445776 2.663725 -4.406044 -0.222537 -0.493062 -0.006766 -0.150343 0.010466 
-11.646347 -5.351668 83.098953 0.153708 7.327495 -104.686316 3.914313 -4.081563 2.961735 1.710096 -1.826111 1.274698 1.710097 -1.826111 1.274698 1.278661 -1.373169 0.950841 22.617159 6.825590 17.069968 5.780622 8.005351 33.093144 -23.701429 -5.699358 -5.317179 -43.469171 -32.029793 34.512782 14.943545 -11.808278 125.876124 5.585998 17.313614 3.138407 -2.678409 11.663819 -2.402071 -2.981152 70.441052 1.835447 3.334022 0.750266 0.622364 10.948692 13.918688 2.935098 10.356863 2.804918 -3.287794 3.269858 -1.418904 -0.759113 -6.433119 0.672739 -4.092337 -0.083442 -0.143232 -0.013856 10.031442 3.242596 -1.206341 2.018191 -0.428115 2.657786 -4.375817 -0.185967 -0.573876 -0.002978 -0.159717 0.011743 
-11.616756 -5.371823 83.108620 0.135996 7.337438 -104.648996 3.976139 -4.108342 3.022894 1.737312 -1.840253 1.299615 1.737312 -1.840250 1.299614 1.298965 -1.383901 0.969402 22.513792 6.903043 17.005597 5.565516 8.135149 33.007193 -23.282926 -6.020963 -5.158933 -43.635801 -32.112244 33.587291 15.221659 -10.986255 126.255336 4.921161 19.538272 4.613500 -2.802637 11.581078 -2.374051 -2.751877 70.504751 1.183061 2.258452 0.283062 1.180084 11.290956 13.791351 3.055675 10.325772 2.835972 -3.275355 3.299935 -1.434140 -0.776530 -6.401810 0.685479 -4.131030 -0.079656 -0.124523 -0.016043 10.012283 3.260080 -1.131516 2.008367 -0.425151 2.649884 -4.340980 -0.144858 -0.648242 -0.003052 -0.165216 0.012241 
-11.587344 -5.389893 83.118355 0.110213 7.356885 -104.594430 4.029601 -4.128725 3.087100 1.760423 -1.850494 1.326407 1.760424 -1.850497 1.326407 1.316193 -1.391714 0.989397 22.414943 6.966979 16.955629 5.363463 8.238465 32.943263 -22.727308 -6.355592 -5.061351 -43.906847 -32.260312 32.803343 15.421474 -10.069430 126.483574 4.099465 21.662855 6.198555 -2.785823 11.495272 -2.437281 -2.811137 70.447227 0.697305 1.004449 -0.114648 1.716466 11.690662 13.579689 3.185621 10.314985 2.868702 -3.303433 3.311267 -1.443036 -0.783291 -6.368830 0.693501 -4.129796 -0.073607 -0.106602 -0.017123 10.001490 3.285832 -1.095109 1.994419 -0.428896 2.639884 -4.296059 -0.101038 -0.703696 -0.007769 -0.168420 0.012732 
-11.557203 -5.403173 83.127708 0.078047 7.379330 -104.523840 4.079793 -4.144721 3.128451 1.782391 -1.857656 1.343146 1.782393 -1.857658 1.343149 1.332602 -1.397183 1.001863 22.322474 7.032822 16.935073 5.175324 8.339740 32.933062 -22.144477 -6.625996 -4.997383 -44.147549 -32.524254 32.050902 15.730747 -9.247433 126.702618 3.270964 23.690340 7.939933 -2.729715 11.405062 -2.498723 -3.309203 70.311402 0.566261 -0.306977 -0.476408 2.227049 12.000738 13.185005 3.290719 10.315394 2.895015 -3.357037 3.308885 -1.439741 -0.778405 -6.336999 0.697992 -4.148618 -0.064846 -0.090247 -0.016446 9.991692 3.311723 -1.085630 1.979312 -0.430518 2.631095 -4.247503 -0.057775 -0.750561 -0.012597 -0.169497 0.013287 
-11.525357 -5.412580 83.136101 0.045184 7.399730 -104.448148 4.111309 -4.165836 3.145286 1.796337 -1.867083 1.349396 1.796337 -1.867083 1.349395 1.343018 -1.404298 1.006476 22.247885 7.099549 16.939513 5.021915 8.440827 32.967339 -21.675218 -6.880091 -4.896749 -44.079282 -32.749282 31.422408 16.149842 -8.606295 126.897620 2.568946 25.613401 9.754174 -2.650168 11.318534 -2.514960 -4.209456 70.122479 0.809281 -1.661359 -0.819214 2.700339 12.152080 12.499811 3.342363 10.319978 2.917737 -3.391612 3.294924 -1.440460 -0.805862 -6.305944 0.702441 -4.172443 -0.054157 -0.073561 -0.015023 9.977113 3.335089 -1.082265 1.968475 -0.433854 2.621482 -4.200945 -0.014923 -0.789345 -0.015849 -0.167241 0.013541 
-11.491065 -5.420424 83.142967 0.012953 7.421652 -104.370632 4.125056 -4.193407 3.170579 1.802225 -1.880191 1.359538 1.802226 -1.880190 1.359536 1.347372 -1.414175 1.014025 22.190663 7.157289 16.940546 4.902292 8.530699 32.991460 -21.097061 -7.017797 -4.846882 -43.899764 -33.041436 30.968382 16.435197 -7.951674 126.975088 1.949523 27.447720 11.455426 -2.527707 11.251664 -2.567644 -5.350665 69.838725 1.255040 -3.083515 -1.111088 3.111936 12.185101 11.562498 3.407589 10.326624 2.941764 -3.423242 3.279355 -1.447710 -0.828397 -6.279980 0.708767 -4.207349 -0.040962 -0.057072 -0.014262 9.961051 3.357718 -1.075811 1.962680 -0.440244 2.606411 -4.159268 0.023767 -0.838953 -0.015587 -0.159585 0.013052 
